<svg xmlns="http://www.w3.org/2000/svg" xmlns:xlink="http://www.w3.org/1999/xlink" version="1.1" style="enable-background:new 0 0 330 330;" xml:space="preserve" width="330" height="330"><rect id="backgroundrect" width="100%" height="100%" x="0" y="0" fill="none" stroke="none"/>
















<g class="currentLayer" style=""><title>Layer 1</title><path id="XMLID_439_" d="M315,60h-45V15c0-8.284-6.716-15-15-15H15C6.716,0,0,6.716,0,15v240c0,8.284,6.716,15,15,15h45v45  c0,8.284,6.716,15,15,15h240c8.284,0,15-6.716,15-15V75C330,66.716,323.284,60,315,60z M30,30h210v210H75.01  c-0.004,0-0.006-0.001-0.01-0.001c-0.003,0-0.006,0.001-0.01,0.001H30V30z M300,300H90v-30h165c8.284,0,15-6.716,15-15V90h30V300z" class="selected" fill="#6d6d6d" fill-opacity="1"/><g id="svg_1">
</g><g id="svg_2">
</g><g id="svg_3">
</g><g id="svg_4">
</g><g id="svg_5">
</g><g id="svg_6">
</g><g id="svg_7">
</g><g id="svg_8">
</g><g id="svg_9">
</g><g id="svg_10">
</g><g id="svg_11">
</g><g id="svg_12">
</g><g id="svg_13">
</g><g id="svg_14">
</g><g id="svg_15">
</g></g></svg>