<svg width="323" height="269" viewBox="0 0 323 269" fill="none" xmlns="http://www.w3.org/2000/svg">
<path d="M112.109 176L78 126.971H40.6302V176H0V0H75.9936C91.5434 0 105.003 2.5981 116.373 7.79429C127.91 12.9905 136.772 20.3657 142.958 29.92C149.145 39.4743 152.238 50.7886 152.238 63.8629C152.238 76.9371 149.061 88.2514 142.707 97.8057C136.521 107.192 127.659 114.4 116.122 119.429L156 176H112.109ZM111.106 63.8629C111.106 53.9733 107.929 46.4305 101.576 41.2343C95.2219 35.8705 85.9421 33.1886 73.7363 33.1886H40.6302V94.5371H73.7363C85.9421 94.5371 95.2219 91.8552 101.576 86.4914C107.929 81.1276 111.106 73.5848 111.106 63.8629Z" fill="black"/>
<path d="M318.79 53.7507L315.312 219.305L277.842 230.682L213.642 138.787L210.44 251.148L173.185 262.46L111.954 175.945L155.94 175.945L180.238 211.439L183.554 94.8137L215.855 85.0056L282.789 181.241L285.411 63.8857L318.79 53.7507Z" fill="black"/>
</svg>
