<svg xmlns="http://www.w3.org/2000/svg" width="300" height="300"><rect id="backgroundrect" width="100%" height="100%" x="0" y="0" fill="none" stroke="none" class="" style=""/><style>.st0{fill:#0acf83}.st1{fill:#a259ff}.st2{fill:#f24e1e}.st3{fill:#ff7262}.st4{fill:#1abcfe}</style><title>Figma.logo</title><desc>Created using Figma</desc><g class="currentLayer" style=""><title>Layer 1</title><path id="path0_fill" class="st0 selected" d="M103.68421173095703,300.2631579041481 c27.6,0 50,-22.4 50,-50 v-50 H103.68421173095703 c-27.6,0 -50,22.4 -50,50 s22.4,50 50,50 z"/><path id="path1_fill" class="st1 selected" d="M53.68421173095703,150.2631579041481 c0,-27.6 22.4,-50 50,-50 h50 v100 H103.68421173095703 c-27.6,0 -50,-22.4 -50,-50 z"/><path id="path1_fill_1_" class="st2 selected" d="M53.68421173095703,50.2631579041481 C53.68421173095703,22.6631579041481 76.08421173095704,0.2631579041481018 103.68421173095703,0.2631579041481018 h50 v100 H103.68421173095703 C76.08421173095704,100.2631579041481 53.68421173095703,77.8631579041481 53.68421173095703,50.2631579041481 z"/><path id="path2_fill" class="st3 selected" d="M153.68421173095703,0.2631579041481018 h50 c27.6,0 50,22.4 50,50 s-22.4,50 -50,50 h-50 V0.2631579041481018 z"/><path id="path3_fill" class="st4 selected" d="M253.68421173095703,150.2631579041481 c0,27.6 -22.4,50 -50,50 s-50,-22.4 -50,-50 s22.4,-50 50,-50 s50,22.4 50,50 z"/></g></svg>