<svg width="217" height="227" viewBox="0 0 217 227" fill="none" xmlns="http://www.w3.org/2000/svg">
<path d="M136 198.653V163C136 153.059 127.941 145 118 145H99C89.0589 145 81 153.059 81 163V195.396C81 204.164 87.3175 211.657 95.9594 213.138L114.959 216.394C125.955 218.279 136 209.809 136 198.653Z" stroke="#E0E0E0" stroke-width="20" stroke-linejoin="round"/>
<path d="M178.764 10H36.7875C21.8117 10 13.3852 27.2217 22.5754 39.0461L73.0952 104.046C76.5052 108.433 81.7505 111 87.3073 111H125.026C130.393 111 135.48 108.605 138.899 104.469L192.637 39.4692C202.34 27.7326 193.992 10 178.764 10Z" stroke="#E0E0E0" stroke-width="20" stroke-linejoin="round"/>
</svg>
