<svg width="225" height="192" viewBox="0 0 225 192" fill="none" xmlns="http://www.w3.org/2000/svg">
<path d="M84.187 100.259L63.4049 100.414C60.5634 100.436 57.7459 100.937 55.0713 101.896C35.6064 108.881 32.3455 135.028 49.4989 146.579L66.4723 158.009C82.2154 168.61 103.723 162.111 110.961 144.566L112.144 141.7C120.328 121.863 105.645 100.099 84.187 100.259Z" fill="#ECECEC"/>
<path d="M110.039 159.27L148.319 127.317C151.171 124.936 153.601 122.09 155.506 118.899L160.758 110.102C174.621 86.8812 156.199 57.759 129.278 60.3366L74.8766 65.5453C54.0938 67.5352 40.3587 88.0814 46.4647 108.046L57.3346 143.588C64.238 166.16 91.9179 174.396 110.039 159.27Z" fill="#F5F6BB"/>
</svg>
