<svg width="730" height="340" viewBox="0 0 730 340" fill="none" xmlns="http://www.w3.org/2000/svg">
<path d="M47.9208 25.3579L108.078 4.76555C117.259 1.62286 126.993 0.423355 136.662 1.24319L510.382 32.9301C518.726 33.6376 526.876 35.8368 534.444 39.423L689.587 112.942C736.383 135.118 743.735 198.668 703.238 230.942L586.054 324.33C570.725 336.546 550.977 341.776 531.611 338.747L269.412 297.738C264.155 296.915 259.008 295.496 254.072 293.507L53.5909 212.741C30.8763 203.59 14.5952 183.235 10.6587 159.064L1.50125 102.838C-3.98572 69.1477 15.6266 36.4124 47.9208 25.3579Z" fill="#C1EEED"/>
</svg>
